<?xml version="1.0" encoding="UTF-8"?>
<svg viewBox="0 0 14 13.000004" xmlns="http://www.w3.org/2000/svg">
 <g transform="translate(-1238.5 -175.72)">
  <path d="m1238.5 175.72h14v13h-14z" fill="#fff"/>
  <path d="m1245.4 175.72c-2.1171 0-3.8402 1.7231-3.8402 3.8402s1.7231 3.8402 3.8402 3.8402 3.8402-1.7231 3.8402-3.8402-1.7231-3.8402-3.8402-3.8402zm-3.6199 7.46c-1.0703 0.21794-1.8572 1.1611-1.8571 2.2978v3.2421h11.017v-3.2421c1e-4 -1.1367-0.7866-2.0799-1.8571-2.2978-0.8489 1.0783-2.1735 1.7942-3.6514 1.7942s-2.7711-0.71592-3.6198-1.7942c-0.01-7e-3 -0.026 7e-3 -0.032 0h5e-4z" fill="#999"/>
 </g>
</svg>
