<svg xmlns="http://www.w3.org/2000/svg" width="1440" height="900"><path d="M523,577L259,747L332,850Z" fill="#868686" stroke="#868686" stroke-width="1.51"/><path d="M332,850L577,980L523,577Z" fill="#6e6e6e" stroke="#6e6e6e" stroke-width="1.51"/><path d="M164,192L-33,511L259,747Z" fill="#bebebe" stroke="#bebebe" stroke-width="1.51"/><path d="M259,747L128,1179L332,850Z" fill="#6d6d6d" stroke="#6d6d6d" stroke-width="1.51"/><path d="M577,980L922,512L523,577Z" fill="#757575" stroke="#757575" stroke-width="1.51"/><path d="M523,577L164,192L259,747Z" fill="#b1b1b1" stroke="#b1b1b1" stroke-width="1.51"/><path d="M332,850L472,1263L577,980Z" fill="#5f5f5f" stroke="#5f5f5f" stroke-width="1.51"/><path d="M-229,922L128,1179L259,747Z" fill="#757575" stroke="#757575" stroke-width="1.51"/><path d="M577,980L894,1105L922,512Z" fill="#474747" stroke="#474747" stroke-width="1.51"/><path d="M128,1179L472,1263L332,850Z" fill="#696969" stroke="#696969" stroke-width="1.51"/><path d="M805,192L415,153L523,577Z" fill="#bcbcbc" stroke="#bcbcbc" stroke-width="1.51"/><path d="M415,153L164,192L523,577Z" fill="#cecece" stroke="#cecece" stroke-width="1.51"/><path d="M472,1263L894,1105L577,980Z" fill="#505050" stroke="#505050" stroke-width="1.51"/><path d="M922,512L805,192L523,577Z" fill="#979797" stroke="#979797" stroke-width="1.51"/><path d="M-33,511L-229,922L259,747Z" fill="#989898" stroke="#989898" stroke-width="1.51"/><path d="M164,192L-96,300L-33,511Z" fill="#dedede" stroke="#dedede" stroke-width="1.51"/><path d="M-419,530L-229,922L-33,511Z" fill="#a8a8a8" stroke="#a8a8a8" stroke-width="1.51"/><path d="M922,512L1112,137L805,192Z" fill="#999999" stroke="#999999" stroke-width="1.51"/><path d="M1102,1011L1108,537L922,512Z" fill="#525252" stroke="#525252" stroke-width="1.51"/><path d="M894,1105L1102,1011L922,512Z" fill="#373737" stroke="#373737" stroke-width="1.51"/><path d="M472,1263L963,1219L894,1105Z" fill="#444444" stroke="#444444" stroke-width="1.51"/><path d="M963,1219L1102,1011L894,1105Z" fill="#323232" stroke="#323232" stroke-width="1.51"/><path d="M164,192L-60,-140L-96,300Z" fill="#f7f7f7" stroke="#f7f7f7" stroke-width="1.51"/><path d="M415,153L199,-65L164,192Z" fill="#ececec" stroke="#ececec" stroke-width="1.51"/><path d="M629,-121L199,-65L415,153Z" fill="#e7e7e7" stroke="#e7e7e7" stroke-width="1.51"/><path d="M805,192L629,-121L415,153Z" fill="#d0d0d0" stroke="#d0d0d0" stroke-width="1.51"/><path d="M946,-99L629,-121L805,192Z" fill="#c2c2c2" stroke="#c2c2c2" stroke-width="1.51"/><path d="M-96,300L-419,530L-33,511Z" fill="#cacaca" stroke="#cacaca" stroke-width="1.51"/><path d="M-457,396L-419,530L-96,300Z" fill="#d1d1d1" stroke="#d1d1d1" stroke-width="1.51"/><path d="M472,1263L527,1572L963,1219Z" fill="#4f4f4f" stroke="#4f4f4f" stroke-width="1.51"/><path d="M179,1709L527,1572L472,1263Z" fill="#646464" stroke="#646464" stroke-width="1.51"/><path d="M179,1709L472,1263L128,1179Z" fill="#6c6c6c" stroke="#6c6c6c" stroke-width="1.51"/><path d="M1108,537L1112,137L922,512Z" fill="#7f7f7f" stroke="#7f7f7f" stroke-width="1.51"/><path d="M-229,922L-271,1410L128,1179Z" fill="#777777" stroke="#777777" stroke-width="1.51"/><path d="M-419,530L-425,1070L-229,922Z" fill="#818181" stroke="#818181" stroke-width="1.51"/><path d="M-419,530L-457,396L-425,1070Z" fill="#a6a6a6" stroke="#a6a6a6" stroke-width="1.51"/><path d="M-584,-84L-457,396L-96,300Z" fill="#eeeeee" stroke="#eeeeee" stroke-width="1.51"/><path d="M1112,137L946,-99L805,192Z" fill="#acacac" stroke="#acacac" stroke-width="1.51"/><path d="M199,-65L-60,-140L164,192Z" fill="#fbfbfb" stroke="#fbfbfb" stroke-width="1.51"/><path d="M184,-523L-60,-140L199,-65Z" fill="#fafafa" stroke="#fafafa" stroke-width="1.51"/><path d="M-425,1070L-271,1410L-229,922Z" fill="#777777" stroke="#777777" stroke-width="1.51"/><path d="M-271,1410L179,1709L128,1179Z" fill="#767676" stroke="#767676" stroke-width="1.51"/><path d="M963,1219L1235,1373L1102,1011Z" fill="#292929" stroke="#292929" stroke-width="1.51"/><path d="M1514,981L1493,547L1108,537Z" fill="#2e2e2e" stroke="#2e2e2e" stroke-width="1.51"/><path d="M1108,537L1493,547L1112,137Z" fill="#646464" stroke="#646464" stroke-width="1.51"/><path d="M1222,1564L1235,1373L963,1219Z" fill="#242424" stroke="#242424" stroke-width="1.51"/><path d="M782,1748L963,1219L527,1572Z" fill="#464646" stroke="#464646" stroke-width="1.51"/><path d="M-425,1070L-418,1357L-271,1410Z" fill="#777777" stroke="#777777" stroke-width="1.51"/><path d="M-271,1410L-243,1784L179,1709Z" fill="#777777" stroke="#777777" stroke-width="1.51"/><path d="M-592,1628L-418,1357L-425,1070Z" fill="#777777" stroke="#777777" stroke-width="1.51"/><path d="M1112,137L1244,-180L946,-99Z" fill="#a1a1a1" stroke="#a1a1a1" stroke-width="1.51"/><path d="M1514,981L1108,537L1102,1011Z" fill="#1f1f1f" stroke="#1f1f1f" stroke-width="1.51"/><path d="M179,1709L782,1748L527,1572Z" fill="#5d5d5d" stroke="#5d5d5d" stroke-width="1.51"/><path d="M1469,1250L1514,981L1102,1011Z" fill="#0b0b0b" stroke="#0b0b0b" stroke-width="1.51"/><path d="M782,1748L1222,1564L963,1219Z" fill="#323232" stroke="#323232" stroke-width="1.51"/><path d="M1235,1373L1469,1250L1102,1011Z" fill="#161616" stroke="#161616" stroke-width="1.51"/><path d="M629,-121L641,-444L199,-65Z" fill="#e2e2e2" stroke="#e2e2e2" stroke-width="1.51"/><path d="M946,-99L641,-444L629,-121Z" fill="#c7c7c7" stroke="#c7c7c7" stroke-width="1.51"/><path d="M1507,1554L1469,1250L1235,1373Z" fill="#060606" stroke="#060606" stroke-width="1.51"/><path d="M946,-99L763,-540L641,-444Z" fill="#c2c2c2" stroke="#c2c2c2" stroke-width="1.51"/><path d="M1657,390L1244,-180L1112,137Z" fill="#7a7a7a" stroke="#7a7a7a" stroke-width="1.51"/><path d="M-60,-140L-584,-84L-96,300Z" fill="#fdfdfd" stroke="#fdfdfd" stroke-width="1.51"/><path d="M641,-444L184,-523L199,-65Z" fill="#ededed" stroke="#ededed" stroke-width="1.51"/><path d="M179,1709L-243,1784L782,1748Z" fill="#6d6d6d" stroke="#6d6d6d" stroke-width="1.51"/><path d="M-592,1628L-243,1784L-271,1410Z" fill="#777777" stroke="#777777" stroke-width="1.51"/><path d="M1493,547L1657,390L1112,137Z" fill="#595959" stroke="#595959" stroke-width="1.51"/><path d="M1868,507L1657,390L1493,547Z" fill="#454545" stroke="#454545" stroke-width="1.51"/><path d="M1868,507L1493,547L1514,981Z" fill="#2a2a2a" stroke="#2a2a2a" stroke-width="1.51"/><path d="M-457,396L-592,1628L-425,1070Z" fill="#777777" stroke="#777777" stroke-width="1.51"/><path d="M-449,-309L-584,-84L-60,-140Z" fill="#ffffff" stroke="#ffffff" stroke-width="1.51"/><path d="M641,-444L763,-540L184,-523Z" fill="#dfdfdf" stroke="#dfdfdf" stroke-width="1.51"/><path d="M1207,-473L763,-540L946,-99Z" fill="#afafaf" stroke="#afafaf" stroke-width="1.51"/><path d="M-239,-514L-449,-309L-60,-140Z" fill="#ffffff" stroke="#ffffff" stroke-width="1.51"/><path d="M-418,1357L-592,1628L-271,1410Z" fill="#777777" stroke="#777777" stroke-width="1.51"/><path d="M-584,-84L-592,1628L-457,396Z" fill="#a9a9a9" stroke="#a9a9a9" stroke-width="1.51"/><path d="M1934,981L1868,507L1514,981Z" fill="#111111" stroke="#111111" stroke-width="1.51"/><path d="M1222,1564L1507,1554L1235,1373Z" fill="#111111" stroke="#111111" stroke-width="1.51"/><path d="M2063,1797L1507,1554L1222,1564Z" fill="#000000" stroke="#000000" stroke-width="1.51"/><path d="M184,-523L-239,-514L-60,-140Z" fill="#ffffff" stroke="#ffffff" stroke-width="1.51"/><path d="M763,-540L-239,-514L184,-523Z" fill="#f4f4f4" stroke="#f4f4f4" stroke-width="1.51"/><path d="M1581,-405L1207,-473L1244,-180Z" fill="#818181" stroke="#818181" stroke-width="1.51"/><path d="M1244,-180L1207,-473L946,-99Z" fill="#9c9c9c" stroke="#9c9c9c" stroke-width="1.51"/><path d="M1657,390L1693,-198L1244,-180Z" fill="#767676" stroke="#767676" stroke-width="1.51"/><path d="M1934,981L1514,981L1469,1250Z" fill="#000000" stroke="#000000" stroke-width="1.51"/><path d="M1895,1433L1934,981L1469,1250Z" fill="#000000" stroke="#000000" stroke-width="1.51"/><path d="M2037,169L1693,-198L1657,390Z" fill="#707070" stroke="#707070" stroke-width="1.51"/><path d="M1693,-198L1581,-405L1244,-180Z" fill="#777777" stroke="#777777" stroke-width="1.51"/><path d="M1507,1554L1895,1433L1469,1250Z" fill="#000000" stroke="#000000" stroke-width="1.51"/><path d="M1693,-198L1999,-462L1581,-405Z" fill="#777777" stroke="#777777" stroke-width="1.51"/><path d="M1868,507L2037,169L1657,390Z" fill="#585858" stroke="#585858" stroke-width="1.51"/><path d="M1934,981L2037,169L1868,507Z" fill="#3b3b3b" stroke="#3b3b3b" stroke-width="1.51"/><path d="M2063,1797L2037,169L1934,981Z" fill="#000000" stroke="#000000" stroke-width="1.51"/><path d="M2037,169L1974,-178L1693,-198Z" fill="#777777" stroke="#777777" stroke-width="1.51"/><path d="M2037,169L1999,-462L1974,-178Z" fill="#777777" stroke="#777777" stroke-width="1.51"/><path d="M1974,-178L1999,-462L1693,-198Z" fill="#777777" stroke="#777777" stroke-width="1.51"/><path d="M1581,-405L1999,-462L1207,-473Z" fill="#777777" stroke="#777777" stroke-width="1.51"/><path d="M1207,-473L1999,-462L763,-540Z" fill="#838383" stroke="#838383" stroke-width="1.51"/><path d="M1895,1433L2063,1797L1934,981Z" fill="#000000" stroke="#000000" stroke-width="1.51"/><path d="M1507,1554L2063,1797L1895,1433Z" fill="#000000" stroke="#000000" stroke-width="1.51"/><path d="M782,1748L2063,1797L1222,1564Z" fill="#0c0c0c" stroke="#0c0c0c" stroke-width="1.51"/><path d="M-243,1784L2063,1797L782,1748Z" fill="#3c3c3c" stroke="#3c3c3c" stroke-width="1.51"/></svg>